<svg width="84" height="16" viewBox="0 0 84 16" fill="none" xmlns="http://www.w3.org/2000/svg">
<path d="M5.78012 15.2398C4.60682 15.2398 3.58682 15.0465 2.72012 14.6598C1.85342 14.2731 1.15342 13.7465 0.620117 13.0798L2.36012 11.1598C2.86682 11.7198 3.42012 12.1331 4.02012 12.3998C4.63342 12.6665 5.25342 12.7998 5.88012 12.7998C6.60012 12.7998 7.14682 12.6398 7.52012 12.3198C7.89342 11.9998 8.08012 11.5398 8.08012 10.9398C8.08012 10.4465 7.93342 10.0731 7.64012 9.8198C7.36012 9.5665 6.88012 9.38651 6.20012 9.27981L4.74012 9.03981C3.48682 8.82651 2.58012 8.3665 2.02012 7.6598C1.46012 6.9398 1.18012 6.06651 1.18012 5.03981C1.18012 3.69311 1.62012 2.6531 2.50012 1.9198C3.38012 1.1731 4.61342 0.799805 6.20012 0.799805C7.28012 0.799805 8.22012 0.966505 9.02012 1.2998C9.82012 1.6331 10.4668 2.0865 10.9601 2.6598L9.26012 4.5598C8.88682 4.1465 8.44682 3.8265 7.94012 3.5998C7.43342 3.3598 6.86012 3.2398 6.22012 3.2398C4.87342 3.2398 4.20012 3.7931 4.20012 4.8998C4.20012 5.3798 4.34682 5.7398 4.64012 5.9798C4.94682 6.2198 5.44012 6.3998 6.12012 6.5198L7.58012 6.77981C8.71342 6.97981 9.58682 7.4065 10.2001 8.0598C10.8134 8.7131 11.1201 9.59311 11.1201 10.6998C11.1201 11.3531 11.0068 11.9598 10.7801 12.5198C10.5534 13.0665 10.2134 13.5465 9.76012 13.9598C9.30682 14.3598 8.74682 14.6731 8.08012 14.8998C7.42682 15.1265 6.66012 15.2398 5.78012 15.2398ZM17.9923 15.2398C17.1923 15.2398 16.4723 15.1198 15.8323 14.8798C15.1923 14.6265 14.6456 14.2665 14.1923 13.7998C13.7523 13.3331 13.4123 12.7665 13.1723 12.0998C12.9323 11.4331 12.8123 10.6798 12.8123 9.8398C12.8123 8.9998 12.9323 8.2465 13.1723 7.5798C13.4123 6.9131 13.7523 6.3465 14.1923 5.8798C14.6456 5.4131 15.1923 5.0598 15.8323 4.8198C16.4723 4.5665 17.1923 4.43981 17.9923 4.43981C18.7923 4.43981 19.5123 4.5665 20.1523 4.8198C20.7923 5.0598 21.3323 5.4131 21.7723 5.8798C22.2256 6.3465 22.5723 6.9131 22.8123 7.5798C23.0523 8.2465 23.1723 8.9998 23.1723 9.8398C23.1723 10.6798 23.0523 11.4331 22.8123 12.0998C22.5723 12.7665 22.2256 13.3331 21.7723 13.7998C21.3323 14.2665 20.7923 14.6265 20.1523 14.8798C19.5123 15.1198 18.7923 15.2398 17.9923 15.2398ZM17.9923 13.0398C18.659 13.0398 19.179 12.8331 19.5523 12.4198C19.9256 12.0065 20.1123 11.4198 20.1123 10.6598V9.0198C20.1123 8.2598 19.9256 7.6731 19.5523 7.2598C19.179 6.8465 18.659 6.6398 17.9923 6.6398C17.3256 6.6398 16.8056 6.8465 16.4323 7.2598C16.059 7.6731 15.8723 8.2598 15.8723 9.0198V10.6598C15.8723 11.4198 16.059 12.0065 16.4323 12.4198C16.8056 12.8331 17.3256 13.0398 17.9923 13.0398ZM25.2845 14.9998V4.6798H28.2445V6.5598H28.3645C28.4845 6.2665 28.6311 5.9931 28.8045 5.7398C28.9778 5.4865 29.1845 5.2665 29.4245 5.0798C29.6778 4.8798 29.9645 4.72651 30.2845 4.61981C30.6178 4.49981 30.9911 4.43981 31.4045 4.43981C31.8978 4.43981 32.3511 4.52651 32.7645 4.69981C33.1778 4.85981 33.5311 5.10651 33.8245 5.43981C34.1178 5.77311 34.3445 6.1798 34.5045 6.6598C34.6778 7.1398 34.7645 7.6931 34.7645 8.3198V14.9998H31.8045V8.7198C31.8045 7.3865 31.2245 6.7198 30.0645 6.7198C29.8378 6.7198 29.6111 6.7531 29.3845 6.8198C29.1711 6.8731 28.9778 6.9665 28.8045 7.0998C28.6311 7.2198 28.4911 7.3731 28.3845 7.5598C28.2911 7.7465 28.2445 7.9665 28.2445 8.2198V14.9998H25.2845ZM45.7167 14.9998C45.1033 14.9998 44.61 14.8465 44.2367 14.5398C43.8633 14.2198 43.6433 13.7665 43.5767 13.1798H43.4767C43.29 13.8598 42.9167 14.3731 42.3567 14.7198C41.81 15.0665 41.1367 15.2398 40.3367 15.2398C39.3367 15.2398 38.53 14.9731 37.9167 14.4398C37.3167 13.8931 37.0167 13.1331 37.0167 12.1598C37.0167 11.0798 37.41 10.2798 38.1967 9.7598C38.9833 9.2398 40.1367 8.9798 41.6567 8.9798H43.3167V8.4598C43.3167 7.8465 43.17 7.3865 42.8767 7.0798C42.5967 6.7598 42.1167 6.5998 41.4367 6.5998C40.81 6.5998 40.3033 6.7198 39.9167 6.9598C39.53 7.1998 39.1967 7.5131 38.9167 7.8998L37.2967 6.4598C37.6433 5.8731 38.1833 5.3931 38.9167 5.0198C39.6633 4.6331 40.6167 4.43981 41.7767 4.43981C43.19 4.43981 44.29 4.7665 45.0767 5.4198C45.8767 6.0598 46.2771 7.0331 46.2771 8.3398V12.8598H47.4171V14.9998H45.7167ZM41.4567 13.2998C41.9767 13.2998 42.4167 13.1731 42.7767 12.9198C43.1367 12.6665 43.3167 12.2998 43.3167 11.8198V10.5798H41.7367C40.5233 10.5798 39.9167 10.9865 39.9167 11.7998V12.1998C39.9167 12.5598 40.0567 12.8331 40.3367 13.0198C40.6167 13.2065 40.99 13.2998 41.4567 13.2998ZM49.4491 12.6998H51.8291V6.9798H49.4491V4.6798H54.7891V7.5998H54.9291C55.0221 7.2265 55.1491 6.8665 55.3091 6.5198C55.4821 6.1598 55.6951 5.8465 55.9491 5.5798C56.2151 5.2998 56.5351 5.0798 56.9091 4.9198C57.2821 4.7598 57.7221 4.6798 58.2291 4.6798H59.2091V7.3998H57.0091C56.2751 7.3998 55.7221 7.6198 55.3491 8.0598C54.9751 8.4865 54.7891 9.0131 54.7891 9.6398V12.6998H58.1891V14.9998H49.4491V12.6998ZM67.7011 13.1198H67.5811C67.3541 13.7065 66.9941 14.2065 66.5011 14.6198C66.0211 15.0331 65.3681 15.2398 64.5411 15.2398C64.0481 15.2398 63.5941 15.1598 63.1811 14.9998C62.7681 14.8265 62.4141 14.5731 62.1211 14.2398C61.8281 13.9065 61.5941 13.4998 61.4211 13.0198C61.2611 12.5398 61.1811 11.9865 61.1811 11.3598V4.6798H64.1411V10.9598C64.1411 12.2931 64.7211 12.9598 65.8811 12.9598C66.1081 12.9598 66.3281 12.9331 66.5411 12.8798C66.7681 12.8131 66.9611 12.7198 67.1211 12.5998C67.2941 12.4665 67.4341 12.3065 67.5411 12.1198C67.6481 11.9331 67.7011 11.7131 67.7011 11.4598V4.6798H70.6611V14.9998H67.7011V13.1198ZM77.9531 15.2398C77.1531 15.2398 76.4331 15.1198 75.7931 14.8798C75.1531 14.6265 74.6061 14.2665 74.1531 13.7998C73.7131 13.3331 73.3731 12.7665 73.1331 12.0998C72.8931 11.4331 72.7731 10.6798 72.7731 9.8398C72.7731 8.9998 72.8931 8.2465 73.1331 7.5798C73.3731 6.9131 73.7131 6.3465 74.1531 5.8798C74.6061 5.4131 75.1531 5.0598 75.7931 4.8198C76.4331 4.5665 77.1531 4.43981 77.9531 4.43981C78.7531 4.43981 79.4731 4.5665 80.1131 4.8198C80.7531 5.0598 81.2931 5.4131 81.7331 5.8798C82.1861 6.3465 82.5331 6.9131 82.7731 7.5798C83.0131 8.2465 83.1331 8.9998 83.1331 9.8398C83.1331 10.6798 83.0131 11.4331 82.7731 12.0998C82.5331 12.7665 82.1861 13.3331 81.7331 13.7998C81.2931 14.2665 80.7531 14.6265 80.1131 14.8798C79.4731 15.1198 78.7531 15.2398 77.9531 15.2398ZM77.9531 13.0398C78.6201 13.0398 79.1401 12.8331 79.5131 12.4198C79.8861 12.0065 80.0731 11.4198 80.0731 10.6598V9.0198C80.0731 8.2598 79.8861 7.6731 79.5131 7.2598C79.1401 6.8465 78.6201 6.6398 77.9531 6.6398C77.2861 6.6398 76.7661 6.8465 76.3931 7.2598C76.0201 7.6731 75.8331 8.2598 75.8331 9.0198V10.6598C75.8331 11.4198 76.0201 12.0065 76.3931 12.4198C76.7661 12.8331 77.2861 13.0398 77.9531 13.0398Z" fill="#6DCD0D"/>
</svg>
