<svg xmlns="http://www.w3.org/2000/svg" width="138" height="41" viewBox="0 0 138 41" fill="none">
<path d="M59.78 28.24C58.6067 28.24 57.5867 28.0467 56.72 27.66C55.8533 27.2733 55.1533 26.7467 54.62 26.08L56.36 24.16C56.8667 24.72 57.42 25.1333 58.02 25.4C58.6333 25.6667 59.2533 25.8 59.88 25.8C60.6 25.8 61.1467 25.64 61.52 25.32C61.8933 25 62.08 24.54 62.08 23.94C62.08 23.4467 61.9333 23.0733 61.64 22.82C61.36 22.5667 60.88 22.3867 60.2 22.28L58.74 22.04C57.4867 21.8267 56.58 21.3667 56.02 20.66C55.46 19.94 55.18 19.0667 55.18 18.04C55.18 16.6933 55.62 15.6533 56.5 14.92C57.38 14.1733 58.6133 13.8 60.2 13.8C61.28 13.8 62.22 13.9667 63.02 14.3C63.82 14.6333 64.4667 15.0867 64.96 15.66L63.26 17.56C62.8867 17.1467 62.4467 16.8267 61.94 16.6C61.4333 16.36 60.86 16.24 60.22 16.24C58.8733 16.24 58.2 16.7933 58.2 17.9C58.2 18.38 58.3467 18.74 58.64 18.98C58.9467 19.22 59.44 19.4 60.12 19.52L61.58 19.78C62.7133 19.98 63.5867 20.4067 64.2 21.06C64.8133 21.7133 65.12 22.5933 65.12 23.7C65.12 24.3533 65.0067 24.96 64.78 25.52C64.5533 26.0667 64.2133 26.5467 63.76 26.96C63.3067 27.36 62.7467 27.6733 62.08 27.9C61.4267 28.1267 60.66 28.24 59.78 28.24ZM71.9922 28.24C71.1922 28.24 70.4722 28.12 69.8322 27.88C69.1922 27.6267 68.6455 27.2667 68.1922 26.8C67.7522 26.3333 67.4122 25.7667 67.1722 25.1C66.9322 24.4333 66.8122 23.68 66.8122 22.84C66.8122 22 66.9322 21.2467 67.1722 20.58C67.4122 19.9133 67.7522 19.3467 68.1922 18.88C68.6455 18.4133 69.1922 18.06 69.8322 17.82C70.4722 17.5667 71.1922 17.44 71.9922 17.44C72.7922 17.44 73.5122 17.5667 74.1522 17.82C74.7922 18.06 75.3322 18.4133 75.7722 18.88C76.2255 19.3467 76.5722 19.9133 76.8122 20.58C77.0522 21.2467 77.1722 22 77.1722 22.84C77.1722 23.68 77.0522 24.4333 76.8122 25.1C76.5722 25.7667 76.2255 26.3333 75.7722 26.8C75.3322 27.2667 74.7922 27.6267 74.1522 27.88C73.5122 28.12 72.7922 28.24 71.9922 28.24ZM71.9922 26.04C72.6589 26.04 73.1789 25.8333 73.5522 25.42C73.9255 25.0067 74.1122 24.42 74.1122 23.66V22.02C74.1122 21.26 73.9255 20.6733 73.5522 20.26C73.1789 19.8467 72.6589 19.64 71.9922 19.64C71.3255 19.64 70.8055 19.8467 70.4322 20.26C70.0589 20.6733 69.8722 21.26 69.8722 22.02V23.66C69.8722 24.42 70.0589 25.0067 70.4322 25.42C70.8055 25.8333 71.3255 26.04 71.9922 26.04ZM79.2844 28V17.68H82.2444V19.56H82.3644C82.4844 19.2667 82.631 18.9933 82.8044 18.74C82.9777 18.4867 83.1844 18.2667 83.4244 18.08C83.6777 17.88 83.9644 17.7267 84.2844 17.62C84.6177 17.5 84.991 17.44 85.4044 17.44C85.8977 17.44 86.351 17.5267 86.7644 17.7C87.1777 17.86 87.531 18.1067 87.8244 18.44C88.1177 18.7733 88.3444 19.18 88.5044 19.66C88.6777 20.14 88.7644 20.6933 88.7644 21.32V28H85.8044V21.72C85.8044 20.3867 85.2244 19.72 84.0644 19.72C83.8377 19.72 83.611 19.7533 83.3844 19.82C83.171 19.8733 82.9777 19.9667 82.8044 20.1C82.631 20.22 82.491 20.3733 82.3844 20.56C82.291 20.7467 82.2444 20.9667 82.2444 21.22V28H79.2844ZM99.7166 28C99.1032 28 98.6099 27.8467 98.2366 27.54C97.8632 27.22 97.6432 26.7667 97.5766 26.18H97.4766C97.2899 26.86 96.9166 27.3733 96.3566 27.72C95.8099 28.0667 95.1366 28.24 94.3366 28.24C93.3366 28.24 92.5299 27.9733 91.9166 27.44C91.3166 26.8933 91.0166 26.1333 91.0166 25.16C91.0166 24.08 91.4099 23.28 92.1966 22.76C92.9832 22.24 94.1366 21.98 95.6566 21.98H97.3166V21.46C97.3166 20.8467 97.1699 20.3867 96.8766 20.08C96.5966 19.76 96.1166 19.6 95.4366 19.6C94.8099 19.6 94.3032 19.72 93.9166 19.96C93.5299 20.2 93.1966 20.5133 92.9166 20.9L91.2966 19.46C91.6432 18.8733 92.1832 18.3933 92.9166 18.02C93.6632 17.6333 94.6166 17.44 95.7766 17.44C97.1899 17.44 98.2899 17.7667 99.0766 18.42C99.8766 19.06 100.277 20.0333 100.277 21.34V25.86H101.417V28H99.7166ZM95.4566 26.3C95.9766 26.3 96.4166 26.1733 96.7766 25.92C97.1366 25.6667 97.3166 25.3 97.3166 24.82V23.58H95.7366C94.5232 23.58 93.9166 23.9867 93.9166 24.8V25.2C93.9166 25.56 94.0566 25.8333 94.3366 26.02C94.6166 26.2067 94.9899 26.3 95.4566 26.3ZM103.449 25.7H105.829V19.98H103.449V17.68H108.789V20.6H108.929C109.022 20.2267 109.149 19.8667 109.309 19.52C109.482 19.16 109.695 18.8467 109.949 18.58C110.215 18.3 110.535 18.08 110.909 17.92C111.282 17.76 111.722 17.68 112.229 17.68H113.209V20.4H111.009C110.275 20.4 109.722 20.62 109.349 21.06C108.975 21.4867 108.789 22.0133 108.789 22.64V25.7H112.189V28H103.449V25.7ZM121.701 26.12H121.581C121.354 26.7067 120.994 27.2067 120.501 27.62C120.021 28.0333 119.368 28.24 118.541 28.24C118.048 28.24 117.594 28.16 117.181 28C116.768 27.8267 116.414 27.5733 116.121 27.24C115.828 26.9067 115.594 26.5 115.421 26.02C115.261 25.54 115.181 24.9867 115.181 24.36V17.68H118.141V23.96C118.141 25.2933 118.721 25.96 119.881 25.96C120.108 25.96 120.328 25.9333 120.541 25.88C120.768 25.8133 120.961 25.72 121.121 25.6C121.294 25.4667 121.434 25.3067 121.541 25.12C121.648 24.9333 121.701 24.7133 121.701 24.46V17.68H124.661V28H121.701V26.12ZM131.953 28.24C131.153 28.24 130.433 28.12 129.793 27.88C129.153 27.6267 128.606 27.2667 128.153 26.8C127.713 26.3333 127.373 25.7667 127.133 25.1C126.893 24.4333 126.773 23.68 126.773 22.84C126.773 22 126.893 21.2467 127.133 20.58C127.373 19.9133 127.713 19.3467 128.153 18.88C128.606 18.4133 129.153 18.06 129.793 17.82C130.433 17.5667 131.153 17.44 131.953 17.44C132.753 17.44 133.473 17.5667 134.113 17.82C134.753 18.06 135.293 18.4133 135.733 18.88C136.186 19.3467 136.533 19.9133 136.773 20.58C137.013 21.2467 137.133 22 137.133 22.84C137.133 23.68 137.013 24.4333 136.773 25.1C136.533 25.7667 136.186 26.3333 135.733 26.8C135.293 27.2667 134.753 27.6267 134.113 27.88C133.473 28.12 132.753 28.24 131.953 28.24ZM131.953 26.04C132.62 26.04 133.14 25.8333 133.513 25.42C133.886 25.0067 134.073 24.42 134.073 23.66V22.02C134.073 21.26 133.886 20.6733 133.513 20.26C133.14 19.8467 132.62 19.64 131.953 19.64C131.286 19.64 130.766 19.8467 130.393 20.26C130.02 20.6733 129.833 21.26 129.833 22.02V23.66C129.833 24.42 130.02 25.0067 130.393 25.42C130.766 25.8333 131.286 26.04 131.953 26.04Z" fill="#6DCD0D"/>
<g clip-path="url(#clip0_898_5)">
<path fill-rule="evenodd" clip-rule="evenodd" d="M20.5 0C17.2652 0 14.6429 2.62233 14.6429 5.85714V6.35963L14.2875 6.00431C12.0002 3.71696 8.29165 3.71695 6.00429 6.00431C3.71693 8.29167 3.71693 12.0002 6.00429 14.2876L6.35958 14.6429H5.85714C2.62233 14.6429 0 17.2652 0 20.5C0 23.6385 2.46858 26.2005 5.57003 26.3502C3.31863 28.6403 3.33059 32.322 5.60592 34.5973C7.89328 36.8846 11.6018 36.8846 13.8892 34.5973L14.6429 33.8436V35.1429C14.6429 38.3777 17.2652 41 20.5 41C23.7348 41 26.3571 38.3777 26.3571 35.1429V34.6404L26.7124 34.9957C28.9998 37.283 32.7083 37.283 34.9957 34.9957C37.283 32.7083 37.283 28.9998 34.9957 26.7124L34.6404 26.3571H35.1429C38.3777 26.3571 41 23.7348 41 20.5C41 17.2652 38.3777 14.6429 35.1429 14.6429H33.8436L34.5973 13.8892C36.8847 11.6018 36.8847 7.89326 34.5973 5.60591C32.322 3.33057 28.6403 3.31861 26.3502 5.57003C26.2005 2.46858 23.6385 0 20.5 0ZM20.5 26.3571C23.7348 26.3571 26.3571 23.7348 26.3571 20.5C26.3571 17.2652 23.7348 14.6428 20.5 14.6428C17.2652 14.6428 14.6428 17.2652 14.6428 20.5C14.6428 23.7348 17.2652 26.3571 20.5 26.3571Z" fill="#6DCD0D"/>
</g>
<defs>
<clipPath id="clip0_898_5">
<rect width="41" height="41" fill="white"/>
</clipPath>
</defs>
</svg>
